<mxfile host="Electron" modified="2023-12-24T14:44:58.166Z" agent="Mozilla/5.0 (X11; Linux x86_64) AppleWebKit/537.36 (KHTML, like Gecko) draw.io/22.1.11 Chrome/114.0.5735.289 Electron/25.9.8 Safari/537.36" etag="HGJUq1RdHweY9CJ0FI5l" version="22.1.11" type="device">
  <diagram name="Page-1" id="Pz4MwFHSm60dw9KtDP1q">
    <mxGraphModel dx="1687" dy="986" grid="1" gridSize="10" guides="1" tooltips="1" connect="1" arrows="1" fold="1" page="1" pageScale="1" pageWidth="850" pageHeight="1100" math="0" shadow="0">
      <root>
        <mxCell id="0" />
        <mxCell id="1" parent="0" />
        <mxCell id="XaExWTZTgXzKedzhWo4S-2" value="" style="sketch=0;points=[[0.015,0.015,0],[0.985,0.015,0],[0.985,0.985,0],[0.015,0.985,0],[0.25,0,0],[0.5,0,0],[0.75,0,0],[1,0.25,0],[1,0.5,0],[1,0.75,0],[0.75,1,0],[0.5,1,0],[0.25,1,0],[0,0.75,0],[0,0.5,0],[0,0.25,0]];verticalLabelPosition=bottom;html=1;verticalAlign=top;aspect=fixed;align=center;pointerEvents=1;shape=mxgraph.cisco19.rect;prIcon=ups;fillColor=#FAFAFA;strokeColor=#005073;" parent="1" vertex="1">
          <mxGeometry x="319" y="230" width="50" height="50" as="geometry" />
        </mxCell>
        <mxCell id="XaExWTZTgXzKedzhWo4S-6" style="rounded=0;orthogonalLoop=1;jettySize=auto;html=1;exitX=0.5;exitY=0;exitDx=0;exitDy=0;exitPerimeter=0;entryX=0.5;entryY=1;entryDx=0;entryDy=0;entryPerimeter=0;elbow=vertical;startArrow=classic;startFill=1;jumpSize=6;strokeWidth=3;fillColor=#0050ef;strokeColor=#001DBC;" parent="1" source="XaExWTZTgXzKedzhWo4S-4" target="XaExWTZTgXzKedzhWo4S-2" edge="1">
          <mxGeometry relative="1" as="geometry" />
        </mxCell>
        <mxCell id="U_Oax4PySNFFu59gkSXx-44" value="1. Listen to the UPS via NUT" style="edgeLabel;html=1;align=center;verticalAlign=middle;resizable=0;points=[];" vertex="1" connectable="0" parent="XaExWTZTgXzKedzhWo4S-6">
          <mxGeometry x="-0.1611" y="-2" relative="1" as="geometry">
            <mxPoint as="offset" />
          </mxGeometry>
        </mxCell>
        <mxCell id="XaExWTZTgXzKedzhWo4S-10" value="&lt;div&gt;K8s&lt;/div&gt;&lt;div&gt;&lt;br&gt;&lt;/div&gt;" style="sketch=0;html=1;dashed=0;whitespace=wrap;fillColor=#2875E2;strokeColor=#ffffff;points=[[0.005,0.63,0],[0.1,0.2,0],[0.9,0.2,0],[0.5,0,0],[0.995,0.63,0],[0.72,0.99,0],[0.5,1,0],[0.28,0.99,0]];verticalLabelPosition=bottom;align=center;verticalAlign=top;shape=mxgraph.kubernetes.icon;prIcon=master" parent="1" vertex="1">
          <mxGeometry x="50" y="360" width="50" height="48" as="geometry" />
        </mxCell>
        <mxCell id="XaExWTZTgXzKedzhWo4S-18" value="" style="swimlane;startSize=0;" parent="1" vertex="1">
          <mxGeometry x="50" y="360" width="900" height="540" as="geometry" />
        </mxCell>
        <mxCell id="XaExWTZTgXzKedzhWo4S-22" style="edgeStyle=orthogonalEdgeStyle;rounded=0;orthogonalLoop=1;jettySize=auto;html=1;exitX=0.005;exitY=0.63;exitDx=0;exitDy=0;exitPerimeter=0;entryX=0.005;entryY=0.63;entryDx=0;entryDy=0;entryPerimeter=0;" parent="XaExWTZTgXzKedzhWo4S-18" edge="1">
          <mxGeometry relative="1" as="geometry">
            <mxPoint x="180.25" y="50.24000000000001" as="sourcePoint" />
          </mxGeometry>
        </mxCell>
        <mxCell id="XaExWTZTgXzKedzhWo4S-23" value="" style="swimlane;startSize=0;" parent="XaExWTZTgXzKedzhWo4S-18" vertex="1">
          <mxGeometry x="60" y="40" width="350" height="300" as="geometry" />
        </mxCell>
        <mxCell id="XaExWTZTgXzKedzhWo4S-24" style="edgeStyle=orthogonalEdgeStyle;rounded=0;orthogonalLoop=1;jettySize=auto;html=1;exitX=0.005;exitY=0.63;exitDx=0;exitDy=0;exitPerimeter=0;entryX=0.005;entryY=0.63;entryDx=0;entryDy=0;entryPerimeter=0;" parent="XaExWTZTgXzKedzhWo4S-23" edge="1">
          <mxGeometry relative="1" as="geometry">
            <mxPoint x="180.25" y="50.24000000000001" as="sourcePoint" />
          </mxGeometry>
        </mxCell>
        <mxCell id="XaExWTZTgXzKedzhWo4S-9" value="" style="swimlane;startSize=0;" parent="XaExWTZTgXzKedzhWo4S-23" vertex="1">
          <mxGeometry x="80" y="40" width="260" height="250" as="geometry" />
        </mxCell>
        <mxCell id="XaExWTZTgXzKedzhWo4S-3" value="&lt;div&gt;Pod&lt;/div&gt;&lt;div&gt;Monitoring&lt;br&gt;&lt;/div&gt;" style="sketch=0;html=1;dashed=0;whitespace=wrap;fillColor=#2875E2;strokeColor=#ffffff;points=[[0.005,0.63,0],[0.1,0.2,0],[0.9,0.2,0],[0.5,0,0],[0.995,0.63,0],[0.72,0.99,0],[0.5,1,0],[0.28,0.99,0]];verticalLabelPosition=bottom;align=center;verticalAlign=top;shape=mxgraph.kubernetes.icon;prIcon=pod" parent="XaExWTZTgXzKedzhWo4S-9" vertex="1">
          <mxGeometry x="10" width="50" height="48" as="geometry" />
        </mxCell>
        <mxCell id="XaExWTZTgXzKedzhWo4S-1" value="&lt;div&gt;Container&amp;nbsp;&lt;/div&gt;&lt;div&gt;UPS Producer&lt;/div&gt;" style="sketch=0;html=1;dashed=0;whitespace=wrap;fillColor=#2875E2;strokeColor=#ffffff;points=[[0.005,0.63,0],[0.1,0.2,0],[0.9,0.2,0],[0.5,0,0],[0.995,0.63,0],[0.72,0.99,0],[0.5,1,0],[0.28,0.99,0]];verticalLabelPosition=bottom;align=center;verticalAlign=top;shape=mxgraph.kubernetes.icon;prIcon=pod" parent="XaExWTZTgXzKedzhWo4S-9" vertex="1">
          <mxGeometry x="129" y="152" width="50" height="48" as="geometry" />
        </mxCell>
        <mxCell id="XaExWTZTgXzKedzhWo4S-4" value="&lt;div&gt;Container&lt;/div&gt;&amp;nbsp;UPS Listener" style="sketch=0;html=1;dashed=0;whitespace=wrap;fillColor=#2875E2;strokeColor=#ffffff;points=[[0.005,0.63,0],[0.1,0.2,0],[0.9,0.2,0],[0.5,0,0],[0.995,0.63,0],[0.72,0.99,0],[0.5,1,0],[0.28,0.99,0]];verticalLabelPosition=bottom;align=center;verticalAlign=top;shape=mxgraph.kubernetes.icon;prIcon=pod" parent="XaExWTZTgXzKedzhWo4S-9" vertex="1">
          <mxGeometry x="129" y="20" width="50" height="48" as="geometry" />
        </mxCell>
        <mxCell id="XaExWTZTgXzKedzhWo4S-7" style="edgeStyle=orthogonalEdgeStyle;rounded=0;orthogonalLoop=1;jettySize=auto;html=1;exitX=0.005;exitY=0.63;exitDx=0;exitDy=0;exitPerimeter=0;entryX=0.005;entryY=0.63;entryDx=0;entryDy=0;entryPerimeter=0;fillColor=#0050ef;strokeColor=#001DBC;" parent="XaExWTZTgXzKedzhWo4S-9" source="XaExWTZTgXzKedzhWo4S-4" target="XaExWTZTgXzKedzhWo4S-1" edge="1">
          <mxGeometry relative="1" as="geometry" />
        </mxCell>
        <mxCell id="U_Oax4PySNFFu59gkSXx-45" value="2. Notify UPS state to producer" style="edgeLabel;html=1;align=center;verticalAlign=middle;resizable=0;points=[];" vertex="1" connectable="0" parent="XaExWTZTgXzKedzhWo4S-7">
          <mxGeometry x="0.0097" y="1" relative="1" as="geometry">
            <mxPoint as="offset" />
          </mxGeometry>
        </mxCell>
        <mxCell id="XaExWTZTgXzKedzhWo4S-26" value="&lt;div&gt;Deployment&lt;/div&gt;&lt;div&gt;&lt;br&gt;&lt;/div&gt;" style="sketch=0;html=1;dashed=0;whitespace=wrap;fillColor=#2875E2;strokeColor=#ffffff;points=[[0.005,0.63,0],[0.1,0.2,0],[0.9,0.2,0],[0.5,0,0],[0.995,0.63,0],[0.72,0.99,0],[0.5,1,0],[0.28,0.99,0]];verticalLabelPosition=bottom;align=center;verticalAlign=top;shape=mxgraph.kubernetes.icon;prIcon=deploy" parent="XaExWTZTgXzKedzhWo4S-23" vertex="1">
          <mxGeometry x="10" width="50" height="48" as="geometry" />
        </mxCell>
        <mxCell id="U_Oax4PySNFFu59gkSXx-17" value="" style="swimlane;startSize=0;" vertex="1" parent="XaExWTZTgXzKedzhWo4S-18">
          <mxGeometry x="420" y="40" width="260" height="300" as="geometry" />
        </mxCell>
        <mxCell id="U_Oax4PySNFFu59gkSXx-18" style="edgeStyle=orthogonalEdgeStyle;rounded=0;orthogonalLoop=1;jettySize=auto;html=1;exitX=0.005;exitY=0.63;exitDx=0;exitDy=0;exitPerimeter=0;entryX=0.005;entryY=0.63;entryDx=0;entryDy=0;entryPerimeter=0;" edge="1" parent="U_Oax4PySNFFu59gkSXx-17">
          <mxGeometry relative="1" as="geometry">
            <mxPoint x="180.25" y="50.24000000000001" as="sourcePoint" />
          </mxGeometry>
        </mxCell>
        <mxCell id="U_Oax4PySNFFu59gkSXx-19" value="" style="swimlane;startSize=0;" vertex="1" parent="U_Oax4PySNFFu59gkSXx-17">
          <mxGeometry x="70" y="40" width="180" height="250" as="geometry">
            <mxRectangle x="80" y="40" width="50" height="40" as="alternateBounds" />
          </mxGeometry>
        </mxCell>
        <mxCell id="U_Oax4PySNFFu59gkSXx-20" value="&lt;div&gt;Pod&lt;/div&gt;&lt;div&gt;Scaling&lt;br&gt;&lt;/div&gt;&lt;div&gt;Controller&lt;/div&gt;" style="sketch=0;html=1;dashed=0;whitespace=wrap;fillColor=#2875E2;strokeColor=#ffffff;points=[[0.005,0.63,0],[0.1,0.2,0],[0.9,0.2,0],[0.5,0,0],[0.995,0.63,0],[0.72,0.99,0],[0.5,1,0],[0.28,0.99,0]];verticalLabelPosition=bottom;align=center;verticalAlign=top;shape=mxgraph.kubernetes.icon;prIcon=pod" vertex="1" parent="U_Oax4PySNFFu59gkSXx-19">
          <mxGeometry x="10" width="50" height="48" as="geometry" />
        </mxCell>
        <mxCell id="U_Oax4PySNFFu59gkSXx-33" value="&lt;div&gt;Container&amp;nbsp;&lt;/div&gt;&lt;div&gt;Scaling controller&lt;/div&gt;" style="sketch=0;html=1;dashed=0;whitespace=wrap;fillColor=#2875E2;strokeColor=#ffffff;points=[[0.005,0.63,0],[0.1,0.2,0],[0.9,0.2,0],[0.5,0,0],[0.995,0.63,0],[0.72,0.99,0],[0.5,1,0],[0.28,0.99,0]];verticalLabelPosition=bottom;align=center;verticalAlign=top;shape=mxgraph.kubernetes.icon;prIcon=pod" vertex="1" parent="U_Oax4PySNFFu59gkSXx-19">
          <mxGeometry x="30" y="152" width="50" height="48" as="geometry" />
        </mxCell>
        <mxCell id="U_Oax4PySNFFu59gkSXx-25" value="&lt;div&gt;Deployment&lt;/div&gt;&lt;div&gt;&lt;br&gt;&lt;/div&gt;" style="sketch=0;html=1;dashed=0;whitespace=wrap;fillColor=#2875E2;strokeColor=#ffffff;points=[[0.005,0.63,0],[0.1,0.2,0],[0.9,0.2,0],[0.5,0,0],[0.995,0.63,0],[0.72,0.99,0],[0.5,1,0],[0.28,0.99,0]];verticalLabelPosition=bottom;align=center;verticalAlign=top;shape=mxgraph.kubernetes.icon;prIcon=deploy" vertex="1" parent="U_Oax4PySNFFu59gkSXx-17">
          <mxGeometry x="10" width="50" height="48" as="geometry" />
        </mxCell>
        <mxCell id="XaExWTZTgXzKedzhWo4S-35" style="edgeStyle=orthogonalEdgeStyle;rounded=0;orthogonalLoop=1;jettySize=auto;html=1;exitX=0.995;exitY=0.63;exitDx=0;exitDy=0;exitPerimeter=0;entryX=0.5;entryY=1;entryDx=0;entryDy=0;entryPerimeter=0;startArrow=classic;startFill=1;fillColor=#60a917;strokeColor=#2D7600;" parent="XaExWTZTgXzKedzhWo4S-18" source="XaExWTZTgXzKedzhWo4S-8" target="U_Oax4PySNFFu59gkSXx-33" edge="1">
          <mxGeometry relative="1" as="geometry">
            <mxPoint x="955" y="288" as="targetPoint" />
          </mxGeometry>
        </mxCell>
        <mxCell id="U_Oax4PySNFFu59gkSXx-47" value="1. Listen to UPS state CRD" style="edgeLabel;html=1;align=center;verticalAlign=middle;resizable=0;points=[];" vertex="1" connectable="0" parent="XaExWTZTgXzKedzhWo4S-35">
          <mxGeometry x="0.3063" relative="1" as="geometry">
            <mxPoint x="-45" y="8" as="offset" />
          </mxGeometry>
        </mxCell>
        <mxCell id="XaExWTZTgXzKedzhWo4S-8" value="&lt;div&gt;CRD&lt;/div&gt;&lt;div&gt;UPS status&lt;br&gt;&lt;/div&gt;" style="sketch=0;html=1;dashed=0;whitespace=wrap;fillColor=#2875E2;strokeColor=#ffffff;points=[[0.005,0.63,0],[0.1,0.2,0],[0.9,0.2,0],[0.5,0,0],[0.995,0.63,0],[0.72,0.99,0],[0.5,1,0],[0.28,0.99,0]];verticalLabelPosition=bottom;align=center;verticalAlign=top;shape=mxgraph.kubernetes.icon;prIcon=crd" parent="XaExWTZTgXzKedzhWo4S-18" vertex="1">
          <mxGeometry x="389" y="380" width="50" height="48" as="geometry" />
        </mxCell>
        <mxCell id="XaExWTZTgXzKedzhWo4S-34" style="edgeStyle=orthogonalEdgeStyle;rounded=0;orthogonalLoop=1;jettySize=auto;html=1;exitX=0.5;exitY=1;exitDx=0;exitDy=0;exitPerimeter=0;entryX=0.005;entryY=0.63;entryDx=0;entryDy=0;entryPerimeter=0;fillColor=#0050ef;strokeColor=#001DBC;" parent="XaExWTZTgXzKedzhWo4S-18" source="XaExWTZTgXzKedzhWo4S-1" target="XaExWTZTgXzKedzhWo4S-8" edge="1">
          <mxGeometry relative="1" as="geometry" />
        </mxCell>
        <mxCell id="U_Oax4PySNFFu59gkSXx-46" value="3. Create a CRD of the State" style="edgeLabel;html=1;align=center;verticalAlign=middle;resizable=0;points=[];" vertex="1" connectable="0" parent="XaExWTZTgXzKedzhWo4S-34">
          <mxGeometry x="-0.3094" y="1" relative="1" as="geometry">
            <mxPoint as="offset" />
          </mxGeometry>
        </mxCell>
        <mxCell id="U_Oax4PySNFFu59gkSXx-41" value="&lt;div&gt;CRD&lt;/div&gt;&lt;div&gt;Scaling status&lt;br&gt;&lt;/div&gt;" style="sketch=0;html=1;dashed=0;whitespace=wrap;fillColor=#2875E2;strokeColor=#ffffff;points=[[0.005,0.63,0],[0.1,0.2,0],[0.9,0.2,0],[0.5,0,0],[0.995,0.63,0],[0.72,0.99,0],[0.5,1,0],[0.28,0.99,0]];verticalLabelPosition=bottom;align=center;verticalAlign=top;shape=mxgraph.kubernetes.icon;prIcon=crd" vertex="1" parent="XaExWTZTgXzKedzhWo4S-18">
          <mxGeometry x="580" y="380" width="50" height="48" as="geometry" />
        </mxCell>
        <mxCell id="U_Oax4PySNFFu59gkSXx-42" style="edgeStyle=orthogonalEdgeStyle;rounded=0;orthogonalLoop=1;jettySize=auto;html=1;exitX=0.72;exitY=0.99;exitDx=0;exitDy=0;exitPerimeter=0;entryX=0.5;entryY=0;entryDx=0;entryDy=0;entryPerimeter=0;fillColor=#60a917;strokeColor=#2D7600;" edge="1" parent="XaExWTZTgXzKedzhWo4S-18" source="U_Oax4PySNFFu59gkSXx-33" target="U_Oax4PySNFFu59gkSXx-41">
          <mxGeometry relative="1" as="geometry">
            <Array as="points">
              <mxPoint x="605" y="280" />
            </Array>
          </mxGeometry>
        </mxCell>
        <mxCell id="U_Oax4PySNFFu59gkSXx-49" value="3. Create a scaling state" style="edgeLabel;html=1;align=center;verticalAlign=middle;resizable=0;points=[];" vertex="1" connectable="0" parent="U_Oax4PySNFFu59gkSXx-42">
          <mxGeometry x="0.2395" y="1" relative="1" as="geometry">
            <mxPoint x="14" y="27" as="offset" />
          </mxGeometry>
        </mxCell>
        <mxCell id="U_Oax4PySNFFu59gkSXx-43" style="edgeStyle=orthogonalEdgeStyle;rounded=0;orthogonalLoop=1;jettySize=auto;html=1;exitX=0.995;exitY=0.63;exitDx=0;exitDy=0;exitPerimeter=0;entryX=0.005;entryY=0.63;entryDx=0;entryDy=0;entryPerimeter=0;fillColor=#60a917;strokeColor=#2D7600;" edge="1" parent="XaExWTZTgXzKedzhWo4S-18" source="U_Oax4PySNFFu59gkSXx-33" target="U_Oax4PySNFFu59gkSXx-40">
          <mxGeometry relative="1" as="geometry">
            <Array as="points">
              <mxPoint x="610" y="262" />
              <mxPoint x="610" y="72" />
            </Array>
          </mxGeometry>
        </mxCell>
        <mxCell id="U_Oax4PySNFFu59gkSXx-48" value="2. Execute scaling job" style="edgeLabel;html=1;align=center;verticalAlign=middle;resizable=0;points=[];" vertex="1" connectable="0" parent="U_Oax4PySNFFu59gkSXx-43">
          <mxGeometry x="-0.0631" y="-1" relative="1" as="geometry">
            <mxPoint as="offset" />
          </mxGeometry>
        </mxCell>
        <mxCell id="U_Oax4PySNFFu59gkSXx-50" value="" style="sketch=0;html=1;dashed=0;whitespace=wrap;fillColor=#2875E2;strokeColor=#ffffff;points=[[0.005,0.63,0],[0.1,0.2,0],[0.9,0.2,0],[0.5,0,0],[0.995,0.63,0],[0.72,0.99,0],[0.5,1,0],[0.28,0.99,0]];verticalLabelPosition=bottom;align=center;verticalAlign=top;shape=mxgraph.kubernetes.icon;prIcon=deploy" vertex="1" parent="XaExWTZTgXzKedzhWo4S-18">
          <mxGeometry x="745" y="440" width="50" height="48" as="geometry" />
        </mxCell>
        <mxCell id="U_Oax4PySNFFu59gkSXx-87" value="" style="sketch=0;html=1;dashed=0;whitespace=wrap;fillColor=#2875E2;strokeColor=#ffffff;points=[[0.005,0.63,0],[0.1,0.2,0],[0.9,0.2,0],[0.5,0,0],[0.995,0.63,0],[0.72,0.99,0],[0.5,1,0],[0.28,0.99,0]];verticalLabelPosition=bottom;align=center;verticalAlign=top;shape=mxgraph.kubernetes.icon;prIcon=hpa" vertex="1" parent="XaExWTZTgXzKedzhWo4S-18">
          <mxGeometry x="815" y="440" width="50" height="48" as="geometry" />
        </mxCell>
        <mxCell id="U_Oax4PySNFFu59gkSXx-90" style="edgeStyle=orthogonalEdgeStyle;rounded=0;orthogonalLoop=1;jettySize=auto;html=1;exitX=0.5;exitY=1;exitDx=0;exitDy=0;exitPerimeter=0;entryX=0.5;entryY=0;entryDx=0;entryDy=0;entryPerimeter=0;fillColor=#e51400;strokeColor=#B20000;" edge="1" parent="XaExWTZTgXzKedzhWo4S-18" source="U_Oax4PySNFFu59gkSXx-38" target="U_Oax4PySNFFu59gkSXx-50">
          <mxGeometry relative="1" as="geometry" />
        </mxCell>
        <mxCell id="U_Oax4PySNFFu59gkSXx-91" style="edgeStyle=orthogonalEdgeStyle;rounded=0;orthogonalLoop=1;jettySize=auto;html=1;exitX=0.5;exitY=1;exitDx=0;exitDy=0;exitPerimeter=0;entryX=0.5;entryY=0;entryDx=0;entryDy=0;entryPerimeter=0;fillColor=#e51400;strokeColor=#B20000;" edge="1" parent="XaExWTZTgXzKedzhWo4S-18" source="U_Oax4PySNFFu59gkSXx-38" target="U_Oax4PySNFFu59gkSXx-87">
          <mxGeometry relative="1" as="geometry">
            <Array as="points">
              <mxPoint x="805" y="360" />
              <mxPoint x="840" y="360" />
            </Array>
          </mxGeometry>
        </mxCell>
        <mxCell id="U_Oax4PySNFFu59gkSXx-92" value="1. Scale everything &lt;br&gt;based on labels and policies" style="edgeLabel;html=1;align=center;verticalAlign=middle;resizable=0;points=[];" vertex="1" connectable="0" parent="U_Oax4PySNFFu59gkSXx-91">
          <mxGeometry x="-0.3739" y="-2" relative="1" as="geometry">
            <mxPoint x="2" y="49" as="offset" />
          </mxGeometry>
        </mxCell>
        <mxCell id="U_Oax4PySNFFu59gkSXx-85" value="" style="sketch=0;html=1;dashed=0;whitespace=wrap;fillColor=#2875E2;strokeColor=#ffffff;points=[[0.005,0.63,0],[0.1,0.2,0],[0.9,0.2,0],[0.5,0,0],[0.995,0.63,0],[0.72,0.99,0],[0.5,1,0],[0.28,0.99,0]];verticalLabelPosition=bottom;align=center;verticalAlign=top;shape=mxgraph.kubernetes.icon;prIcon=deploy" vertex="1" parent="XaExWTZTgXzKedzhWo4S-18">
          <mxGeometry x="755" y="450" width="50" height="48" as="geometry" />
        </mxCell>
        <mxCell id="U_Oax4PySNFFu59gkSXx-86" value="Deployments" style="sketch=0;html=1;dashed=0;whitespace=wrap;fillColor=#2875E2;strokeColor=#ffffff;points=[[0.005,0.63,0],[0.1,0.2,0],[0.9,0.2,0],[0.5,0,0],[0.995,0.63,0],[0.72,0.99,0],[0.5,1,0],[0.28,0.99,0]];verticalLabelPosition=bottom;align=center;verticalAlign=top;shape=mxgraph.kubernetes.icon;prIcon=deploy" vertex="1" parent="XaExWTZTgXzKedzhWo4S-18">
          <mxGeometry x="765" y="460" width="50" height="48" as="geometry" />
        </mxCell>
        <mxCell id="U_Oax4PySNFFu59gkSXx-88" value="" style="sketch=0;html=1;dashed=0;whitespace=wrap;fillColor=#2875E2;strokeColor=#ffffff;points=[[0.005,0.63,0],[0.1,0.2,0],[0.9,0.2,0],[0.5,0,0],[0.995,0.63,0],[0.72,0.99,0],[0.5,1,0],[0.28,0.99,0]];verticalLabelPosition=bottom;align=center;verticalAlign=top;shape=mxgraph.kubernetes.icon;prIcon=hpa" vertex="1" parent="XaExWTZTgXzKedzhWo4S-18">
          <mxGeometry x="825" y="450" width="50" height="48" as="geometry" />
        </mxCell>
        <mxCell id="U_Oax4PySNFFu59gkSXx-89" value="HPAs" style="sketch=0;html=1;dashed=0;whitespace=wrap;fillColor=#2875E2;strokeColor=#ffffff;points=[[0.005,0.63,0],[0.1,0.2,0],[0.9,0.2,0],[0.5,0,0],[0.995,0.63,0],[0.72,0.99,0],[0.5,1,0],[0.28,0.99,0]];verticalLabelPosition=bottom;align=center;verticalAlign=top;shape=mxgraph.kubernetes.icon;prIcon=hpa" vertex="1" parent="XaExWTZTgXzKedzhWo4S-18">
          <mxGeometry x="835" y="460" width="50" height="48" as="geometry" />
        </mxCell>
        <mxCell id="U_Oax4PySNFFu59gkSXx-34" value="" style="swimlane;startSize=0;" vertex="1" parent="XaExWTZTgXzKedzhWo4S-18">
          <mxGeometry x="690" y="40" width="190" height="300" as="geometry" />
        </mxCell>
        <mxCell id="U_Oax4PySNFFu59gkSXx-35" style="edgeStyle=orthogonalEdgeStyle;rounded=0;orthogonalLoop=1;jettySize=auto;html=1;exitX=0.005;exitY=0.63;exitDx=0;exitDy=0;exitPerimeter=0;entryX=0.005;entryY=0.63;entryDx=0;entryDy=0;entryPerimeter=0;" edge="1" parent="U_Oax4PySNFFu59gkSXx-34">
          <mxGeometry relative="1" as="geometry">
            <mxPoint x="180.25" y="50.24000000000001" as="sourcePoint" />
          </mxGeometry>
        </mxCell>
        <mxCell id="U_Oax4PySNFFu59gkSXx-36" value="" style="swimlane;startSize=0;" vertex="1" parent="U_Oax4PySNFFu59gkSXx-34">
          <mxGeometry x="60" y="40" width="120" height="250" as="geometry">
            <mxRectangle x="80" y="40" width="50" height="40" as="alternateBounds" />
          </mxGeometry>
        </mxCell>
        <mxCell id="U_Oax4PySNFFu59gkSXx-37" value="&lt;div&gt;Pod &lt;br&gt;&lt;/div&gt;&lt;div&gt;&lt;br&gt;&lt;/div&gt;&lt;div&gt;Scaling&lt;br&gt;&lt;/div&gt;" style="sketch=0;html=1;dashed=0;whitespace=wrap;fillColor=#2875E2;strokeColor=#ffffff;points=[[0.005,0.63,0],[0.1,0.2,0],[0.9,0.2,0],[0.5,0,0],[0.995,0.63,0],[0.72,0.99,0],[0.5,1,0],[0.28,0.99,0]];verticalLabelPosition=bottom;align=center;verticalAlign=top;shape=mxgraph.kubernetes.icon;prIcon=pod" vertex="1" parent="U_Oax4PySNFFu59gkSXx-36">
          <mxGeometry x="10" width="50" height="48" as="geometry" />
        </mxCell>
        <mxCell id="U_Oax4PySNFFu59gkSXx-38" value="&lt;div&gt;Container&amp;nbsp;&lt;/div&gt;&lt;div&gt;Scaling controller&lt;/div&gt;" style="sketch=0;html=1;dashed=0;whitespace=wrap;fillColor=#2875E2;strokeColor=#ffffff;points=[[0.005,0.63,0],[0.1,0.2,0],[0.9,0.2,0],[0.5,0,0],[0.995,0.63,0],[0.72,0.99,0],[0.5,1,0],[0.28,0.99,0]];verticalLabelPosition=bottom;align=center;verticalAlign=top;shape=mxgraph.kubernetes.icon;prIcon=pod" vertex="1" parent="U_Oax4PySNFFu59gkSXx-36">
          <mxGeometry x="30" y="152" width="50" height="48" as="geometry" />
        </mxCell>
        <mxCell id="U_Oax4PySNFFu59gkSXx-40" value="Job&lt;br&gt;" style="sketch=0;html=1;dashed=0;whitespace=wrap;fillColor=#2875E2;strokeColor=#ffffff;points=[[0.005,0.63,0],[0.1,0.2,0],[0.9,0.2,0],[0.5,0,0],[0.995,0.63,0],[0.72,0.99,0],[0.5,1,0],[0.28,0.99,0]];verticalLabelPosition=bottom;align=center;verticalAlign=top;shape=mxgraph.kubernetes.icon;prIcon=job" vertex="1" parent="U_Oax4PySNFFu59gkSXx-34">
          <mxGeometry x="10" width="50" height="50" as="geometry" />
        </mxCell>
      </root>
    </mxGraphModel>
  </diagram>
</mxfile>
